STARTFONT 2.1
FONT -Monotype-Century Schoolbook-Bold-I-Normal--17-120-100-100-P-92-iso8859-9
SIZE 12 100 100
FONTBOUNDINGBOX 21 20 -2 -4

STARTPROPERTIES 24
FOUNDRY "Monotype"
FAMILY_NAME "Century Schoolbook"
WEIGHT_NAME "Bold"
SLANT "I"
SETWIDTH_NAME "Normal"
ADD_STYLE_NAME ""
PIXEL_SIZE 17
POINT_SIZE 120
RESOLUTION_X 100
RESOLUTION_Y 100
SPACING "P"
AVERAGE_WIDTH 92
CHARSET_REGISTRY "iso8859"
CHARSET_ENCODING "9"
FACE_NAME "Century Schoolbook Bold Italic ISO Latin5"
_DEC_DEVICE_FONTNAMES "PS=centuryschoolbook-bit-lat5"
COPYRIGHT "Copyright (c) 1994 Monotype Typography Ltd."
CAP_HEIGHT 15
X_HEIGHT 10
WEIGHT 10
QUAD_WIDTH 10
DEFAULT_CHAR 160
FONT_DESCENT 4
FONT_ASCENT 18
ENDPROPERTIES

CHARS 191

STARTCHAR space
ENCODING 32
SWIDTH 287 0
DWIDTH 5 0
BBX 0 0 0 0
BITMAP
ENDCHAR

STARTCHAR exclam
ENCODING 33
SWIDTH 333 0
DWIDTH 6 0
BBX 5 12 0 0
BITMAP
18
18
38
38
30
30
20
20
00
E0
E0
E0
ENDCHAR

STARTCHAR quotedbl
ENCODING 34
SWIDTH 400 0
DWIDTH 7 0
BBX 6 6 2 6
BITMAP
6C
6C
6C
D8
D8
D8
ENDCHAR

STARTCHAR numbersign
ENCODING 35
SWIDTH 606 0
DWIDTH 10 0
BBX 10 12 1 0
BITMAP
1980
1980
1980
7FC0
3300
3300
3300
FF80
6600
6600
6600
6600
ENDCHAR

STARTCHAR dollar
ENCODING 36
SWIDTH 574 0
DWIDTH 10 0
BBX 8 15 1 -2
BITMAP
02
0E
1B
3B
3B
38
3C
1E
0E
CE
CE
CC
78
20
20
ENDCHAR

STARTCHAR percent
ENCODING 37
SWIDTH 889 0
DWIDTH 15 0
BBX 10 12 3 0
BITMAP
2080
7100
D100
9200
B400
E480
49C0
1340
1240
22C0
4380
4100
ENDCHAR

STARTCHAR ampersand
ENCODING 38
SWIDTH 889 0
DWIDTH 15 0
BBX 13 12 1 0
BITMAP
03C0
0660
0E60
0E60
0EC0
0F00
3E78
7720
E3A0
E3C8
F1D0
7EE0
ENDCHAR

STARTCHAR quoteright
ENCODING 39
SWIDTH 259 0
DWIDTH 4 0
BBX 4 6 0 6
BITMAP
20
70
70
30
20
C0
ENDCHAR

STARTCHAR parenleft
ENCODING 40
SWIDTH 407 0
DWIDTH 7 0
BBX 6 15 2 -3
BITMAP
04
08
10
30
60
60
E0
C0
C0
C0
C0
C0
40
40
20
ENDCHAR

STARTCHAR parenright
ENCODING 41
SWIDTH 407 0
DWIDTH 7 0
BBX 6 15 -1 -3
BITMAP
10
08
08
0C
0C
0C
0C
0C
1C
18
18
30
20
40
80
ENDCHAR

STARTCHAR asterisk
ENCODING 42
SWIDTH 500 0
DWIDTH 9 0
BBX 8 7 1 5
BITMAP
18
18
DB
FF
18
3C
66
ENDCHAR

STARTCHAR plus
ENCODING 43
SWIDTH 606 0
DWIDTH 10 0
BBX 10 10 1 1
BITMAP
0C00
0C00
0C00
0C00
FFC0
FFC0
0C00
0C00
0C00
0C00
ENDCHAR

STARTCHAR comma
ENCODING 44
SWIDTH 287 0
DWIDTH 5 0
BBX 4 6 0 -3
BITMAP
20
70
70
30
20
C0
ENDCHAR

STARTCHAR minus
ENCODING 45
SWIDTH 606 0
DWIDTH 10 0
BBX 10 2 1 5
BITMAP
FFC0
FFC0
ENDCHAR

STARTCHAR period
ENCODING 46
SWIDTH 287 0
DWIDTH 5 0
BBX 4 3 1 0
BITMAP
60
F0
60
ENDCHAR

STARTCHAR slash
ENCODING 47
SWIDTH 278 0
DWIDTH 5 0
BBX 9 13 -2 0
BITMAP
0080
0180
0300
0200
0600
0C00
0800
1800
3000
2000
6000
4000
C000
ENDCHAR

STARTCHAR zero
ENCODING 48
SWIDTH 574 0
DWIDTH 10 0
BBX 9 12 1 0
BITMAP
0E00
1B00
3380
7380
6380
E380
E380
E300
E700
E600
6C00
3800
ENDCHAR

STARTCHAR one
ENCODING 49
SWIDTH 574 0
DWIDTH 10 0
BBX 7 12 1 0
BITMAP
06
3E
0E
0E
1C
1C
1C
1C
38
38
38
FE
ENDCHAR

STARTCHAR two
ENCODING 50
SWIDTH 574 0
DWIDTH 10 0
BBX 9 12 1 0
BITMAP
1E00
2700
6380
7380
3380
0700
0600
0C00
1000
2100
7E00
FE00
ENDCHAR

STARTCHAR three
ENCODING 51
SWIDTH 574 0
DWIDTH 10 0
BBX 9 12 1 0
BITMAP
1F00
3380
3B80
1380
0380
1F00
0600
4700
E700
C700
4E00
3C00
ENDCHAR

STARTCHAR four
ENCODING 52
SWIDTH 574 0
DWIDTH 10 0
BBX 9 12 1 0
BITMAP
0180
0380
0780
0B80
1380
1700
2700
4700
FF00
0E00
0E00
3F80
ENDCHAR

STARTCHAR five
ENCODING 53
SWIDTH 574 0
DWIDTH 10 0
BBX 9 12 1 0
BITMAP
1F80
1F00
3000
2000
2E00
7F00
4700
0700
4700
EE00
CC00
7800
ENDCHAR

STARTCHAR six
ENCODING 54
SWIDTH 574 0
DWIDTH 10 0
BBX 9 12 1 0
BITMAP
0F00
1980
3180
7000
6E00
F700
E700
E700
E700
E600
6600
3800
ENDCHAR

STARTCHAR seven
ENCODING 55
SWIDTH 574 0
DWIDTH 10 0
BBX 8 12 2 0
BITMAP
7F
FF
82
86
0C
18
18
30
70
60
E0
C0
ENDCHAR

STARTCHAR eight
ENCODING 56
SWIDTH 574 0
DWIDTH 10 0
BBX 9 12 1 0
BITMAP
1E00
3300
7180
7180
7B00
3E00
3E00
6F00
C700
C300
6600
3C00
ENDCHAR

STARTCHAR nine
ENCODING 57
SWIDTH 574 0
DWIDTH 10 0
BBX 9 12 1 0
BITMAP
0E00
3300
3380
7380
7380
7380
7780
3B00
0700
C600
CC00
7800
ENDCHAR

STARTCHAR colon
ENCODING 58
SWIDTH 287 0
DWIDTH 5 0
BBX 5 8 0 0
BITMAP
30
78
30
00
00
60
F0
60
ENDCHAR

STARTCHAR semicolon
ENCODING 59
SWIDTH 287 0
DWIDTH 5 0
BBX 5 11 0 -3
BITMAP
30
78
30
00
00
20
70
70
30
20
C0
ENDCHAR

STARTCHAR less
ENCODING 60
SWIDTH 606 0
DWIDTH 10 0
BBX 9 8 1 2
BITMAP
0380
0E00
3800
E000
E000
3800
0E00
0380
ENDCHAR

STARTCHAR equal
ENCODING 61
SWIDTH 606 0
DWIDTH 10 0
BBX 10 6 1 3
BITMAP
FFC0
FFC0
0000
0000
FFC0
FFC0
ENDCHAR

STARTCHAR greater
ENCODING 62
SWIDTH 606 0
DWIDTH 10 0
BBX 9 8 1 2
BITMAP
E000
3800
0E00
0380
0380
0E00
3800
E000
ENDCHAR

STARTCHAR question
ENCODING 63
SWIDTH 481 0
DWIDTH 8 0
BBX 7 12 1 0
BITMAP
1C
2E
4E
3C
78
70
48
30
00
60
F0
60
ENDCHAR

STARTCHAR at
ENCODING 64
SWIDTH 747 0
DWIDTH 13 0
BBX 12 13 0 0
BITMAP
0F00
30C0
4020
42A0
8590
8990
9910
9B20
9D60
4990
4010
3060
0F80
ENDCHAR

STARTCHAR A
ENCODING 65
SWIDTH 741 0
DWIDTH 13 0
BBX 13 12 0 0
BITMAP
0060
00E0
01E0
02E0
02E0
0470
0870
1FF0
1070
2070
4070
E0F8
ENDCHAR

STARTCHAR B
ENCODING 66
SWIDTH 759 0
DWIDTH 13 0
BBX 12 12 1 0
BITMAP
3FE0
1C70
1C70
1C70
38E0
3FC0
38E0
38E0
70E0
70E0
71C0
FF00
ENDCHAR

STARTCHAR C
ENCODING 67
SWIDTH 759 0
DWIDTH 13 0
BBX 12 12 2 0
BITMAP
0790
1C70
3820
7020
7020
E000
E000
E000
E000
E040
7080
1F00
ENDCHAR

STARTCHAR D
ENCODING 68
SWIDTH 833 0
DWIDTH 14 0
BBX 13 12 1 0
BITMAP
3F80
1C60
1C30
1C38
3838
3838
3838
3870
7070
70E0
71C0
FF00
ENDCHAR

STARTCHAR E
ENCODING 69
SWIDTH 741 0
DWIDTH 13 0
BBX 13 12 1 0
BITMAP
3FF0
1C18
1C10
1C90
3880
3F80
3900
3920
7020
7060
7060
FFC0
ENDCHAR

STARTCHAR F
ENCODING 70
SWIDTH 704 0
DWIDTH 12 0
BBX 12 12 1 0
BITMAP
3FF0
1C30
1C20
1CA0
3880
3F80
3900
3900
7000
7000
7000
F800
ENDCHAR

STARTCHAR G
ENCODING 71
SWIDTH 815 0
DWIDTH 14 0
BBX 13 12 2 0
BITMAP
0790
1C70
3820
7020
7020
E000
E1F8
E060
E0E0
E0E0
71C0
1E40
ENDCHAR

STARTCHAR H
ENCODING 72
SWIDTH 870 0
DWIDTH 15 0
BBX 15 12 1 0
BITMAP
3E3E
1C1C
1C1C
1C1C
3838
3FF8
3838
3838
7070
7070
7070
F8F8
ENDCHAR

STARTCHAR I
ENCODING 73
SWIDTH 444 0
DWIDTH 7 0
BBX 7 12 1 0
BITMAP
3E
1C
1C
1C
38
38
38
38
70
70
70
F8
ENDCHAR

STARTCHAR J
ENCODING 74
SWIDTH 667 0
DWIDTH 11 0
BBX 11 12 1 0
BITMAP
03E0
01C0
01C0
01C0
0380
0380
6380
F380
E300
8700
4600
3C00
ENDCHAR

STARTCHAR K
ENCODING 75
SWIDTH 778 0
DWIDTH 14 0
BBX 13 12 1 0
BITMAP
3E78
1C20
1C40
1C80
3980
3B80
3DC0
39C0
70E0
70E0
7070
F8F8
ENDCHAR

STARTCHAR L
ENCODING 76
SWIDTH 704 0
DWIDTH 12 0
BBX 10 12 1 0
BITMAP
3E00
1C00
1C00
1C00
3800
3800
3800
3840
7040
70C0
70C0
FF80
ENDCHAR

STARTCHAR M
ENCODING 77
SWIDTH 944 0
DWIDTH 16 0
BBX 16 12 1 0
BITMAP
3C0F
1C1E
1C2E
1C2E
2E5C
2E5C
2E9C
2F1C
4F38
4638
4638
E47C
ENDCHAR

STARTCHAR N
ENCODING 78
SWIDTH 852 0
DWIDTH 14 0
BBX 14 12 1 0
BITMAP
3C1C
1C08
1E08
1610
2710
2310
23A0
21A0
41E0
40E0
40C0
E040
ENDCHAR

STARTCHAR O
ENCODING 79
SWIDTH 833 0
DWIDTH 14 0
BBX 12 12 2 0
BITMAP
0780
1CE0
3870
7070
7070
E070
E070
E0E0
E0E0
E1C0
7380
1E00
ENDCHAR

STARTCHAR P
ENCODING 80
SWIDTH 741 0
DWIDTH 12 0
BBX 12 12 1 0
BITMAP
3F80
1CE0
1C70
1C70
3870
38E0
3F80
3800
7000
7000
7000
F800
ENDCHAR

STARTCHAR Q
ENCODING 81
SWIDTH 833 0
DWIDTH 14 0
BBX 12 15 2 -3
BITMAP
0780
1CE0
3870
7070
7070
E070
E070
EEE0
F3E0
F3C0
7380
1F00
03A0
03A0
01C0
ENDCHAR

STARTCHAR R
ENCODING 82
SWIDTH 796 0
DWIDTH 14 0
BBX 13 12 1 0
BITMAP
3FE0
1C70
1C38
1C38
3870
3FE0
39C0
39C0
78E0
70E0
70E8
F870
ENDCHAR

STARTCHAR S
ENCODING 83
SWIDTH 685 0
DWIDTH 12 0
BBX 11 12 1 0
BITMAP
0F20
1CE0
3840
3840
3E00
1F80
0FC0
03C0
41C0
41C0
E380
9F00
ENDCHAR

STARTCHAR T
ENCODING 84
SWIDTH 722 0
DWIDTH 12 0
BBX 11 12 2 0
BITMAP
7FE0
6E60
CE60
8E40
9C40
1C00
1C00
1C00
3800
3800
3800
7C00
ENDCHAR

STARTCHAR U
ENCODING 85
SWIDTH 833 0
DWIDTH 14 0
BBX 13 12 2 0
BITMAP
7C38
3810
3810
3810
7020
7020
7020
E020
E040
E040
7080
3F00
ENDCHAR

STARTCHAR V
ENCODING 86
SWIDTH 741 0
DWIDTH 13 0
BBX 13 12 2 0
BITMAP
F878
7030
7020
7040
7040
7080
3900
3A00
3A00
3C00
3800
3000
ENDCHAR

STARTCHAR W
ENCODING 87
SWIDTH 944 0
DWIDTH 17 0
BBX 17 12 2 0
BITMAP
F9F780
70E300
71E200
72E400
72E400
74E800
74E800
78F000
78F000
70E000
70E000
60C000
ENDCHAR

STARTCHAR X
ENCODING 88
SWIDTH 741 0
DWIDTH 12 0
BBX 13 12 0 0
BITMAP
3E78
1C30
0E20
0E40
0780
0380
0780
09C0
11C0
20E0
60E0
F1F0
ENDCHAR

STARTCHAR Y
ENCODING 89
SWIDTH 704 0
DWIDTH 12 0
BBX 12 12 2 0
BITMAP
F8F0
7060
3840
3880
1C80
0F00
0E00
0E00
1C00
1C00
1C00
3E00
ENDCHAR

STARTCHAR Z
ENCODING 90
SWIDTH 704 0
DWIDTH 12 0
BBX 12 12 1 0
BITMAP
1FF0
18E0
31C0
21C0
2380
0700
0E00
1C40
1C40
38C0
7180
FF80
ENDCHAR

STARTCHAR bracketleft
ENCODING 91
SWIDTH 407 0
DWIDTH 7 0
BBX 7 15 1 -3
BITMAP
1E
18
18
18
30
30
30
30
60
60
60
C0
C0
C0
F0
ENDCHAR

STARTCHAR backslash
ENCODING 92
SWIDTH 606 0
DWIDTH 10 0
BBX 7 13 2 0
BITMAP
80
C0
40
60
20
30
10
18
08
0C
04
06
02
ENDCHAR

STARTCHAR bracketright
ENCODING 93
SWIDTH 407 0
DWIDTH 7 0
BBX 7 15 -1 -3
BITMAP
1E
06
06
06
0C
0C
0C
0C
18
18
18
30
30
30
F0
ENDCHAR

STARTCHAR asciicircum
ENCODING 94
SWIDTH 606 0
DWIDTH 10 0
BBX 8 6 2 6
BITMAP
08
1C
3C
36
66
C3
ENDCHAR

STARTCHAR underscore
ENCODING 95
SWIDTH 500 0
DWIDTH 9 0
BBX 9 1 0 -2
BITMAP
FF80
ENDCHAR

STARTCHAR quoteleft
ENCODING 96
SWIDTH 259 0
DWIDTH 4 0
BBX 4 6 1 6
BITMAP
30
40
C0
E0
E0
40
ENDCHAR

STARTCHAR a
ENCODING 97
SWIDTH 667 0
DWIDTH 11 0
BBX 10 8 1 0
BITMAP
1D80
3380
7380
E380
E700
E700
EF40
7780
ENDCHAR

STARTCHAR b
ENCODING 98
SWIDTH 611 0
DWIDTH 10 0
BBX 8 12 1 0
BITMAP
78
38
38
70
7E
77
67
E7
E7
E6
EE
7C
ENDCHAR

STARTCHAR c
ENCODING 99
SWIDTH 537 0
DWIDTH 9 0
BBX 8 8 1 0
BITMAP
1E
7B
73
E0
E0
E0
E4
78
ENDCHAR

STARTCHAR d
ENCODING 100
SWIDTH 667 0
DWIDTH 11 0
BBX 10 12 1 0
BITMAP
03C0
01C0
01C0
01C0
1B80
7780
6380
E380
E700
E700
EF40
7380
ENDCHAR

STARTCHAR e
ENCODING 101
SWIDTH 519 0
DWIDTH 9 0
BBX 8 8 1 0
BITMAP
1E
77
67
EE
FC
E0
E2
7C
ENDCHAR

STARTCHAR f
ENCODING 102
SWIDTH 389 0
DWIDTH 7 0
BBX 8 15 1 -3
BITMAP
0E
1B
39
38
FE
38
30
70
70
70
60
E0
E0
C0
C0
ENDCHAR

STARTCHAR g
ENCODING 103
SWIDTH 611 0
DWIDTH 10 0
BBX 11 12 0 -3
BITMAP
0060
1FA0
39C0
39C0
1980
3F00
4000
7E00
7F00
C380
C700
7E00
ENDCHAR

STARTCHAR h
ENCODING 104
SWIDTH 685 0
DWIDTH 12 0
BBX 10 12 1 0
BITMAP
7800
3800
3800
3800
7700
7B80
7380
7380
E700
E700
E740
E380
ENDCHAR

STARTCHAR i
ENCODING 105
SWIDTH 389 0
DWIDTH 7 0
BBX 5 12 1 0
BITMAP
38
38
38
00
F0
70
70
70
E0
E0
E8
70
ENDCHAR

STARTCHAR j
ENCODING 106
SWIDTH 370 0
DWIDTH 6 0
BBX 8 15 -2 -3
BITMAP
07
07
07
00
1E
0E
0E
0E
1C
1C
1C
18
D8
D0
60
ENDCHAR

STARTCHAR k
ENCODING 107
SWIDTH 648 0
DWIDTH 11 0
BBX 9 12 1 0
BITMAP
7800
3800
3800
3800
7700
7B80
7380
6300
FE00
EC00
E680
E300
ENDCHAR

STARTCHAR l
ENCODING 108
SWIDTH 389 0
DWIDTH 7 0
BBX 5 12 1 0
BITMAP
78
38
38
38
70
70
70
70
E0
E0
E8
70
ENDCHAR

STARTCHAR m
ENCODING 109
SWIDTH 944 0
DWIDTH 16 0
BBX 15 8 1 0
BITMAP
F778
7BDC
739C
739C
73B8
E738
E73A
E71C
ENDCHAR

STARTCHAR n
ENCODING 110
SWIDTH 685 0
DWIDTH 12 0
BBX 10 8 1 0
BITMAP
F700
7B80
7380
7380
7700
E700
E740
E380
ENDCHAR

STARTCHAR o
ENCODING 111
SWIDTH 574 0
DWIDTH 10 0
BBX 8 8 1 0
BITMAP
1E
37
67
E7
E7
E6
EC
78
ENDCHAR

STARTCHAR p
ENCODING 112
SWIDTH 648 0
DWIDTH 11 0
BBX 11 11 -1 -3
BITMAP
3DC0
1EE0
1CE0
1CE0
38E0
38C0
39C0
3F00
7000
7000
F800
ENDCHAR

STARTCHAR q
ENCODING 113
SWIDTH 630 0
DWIDTH 11 0
BBX 9 11 1 -3
BITMAP
1E80
3380
7380
6380
E700
E700
EF00
7600
0E00
0E00
1F00
ENDCHAR

STARTCHAR r
ENCODING 114
SWIDTH 519 0
DWIDTH 9 0
BBX 8 8 1 0
BITMAP
EE
73
73
70
70
E0
E0
E0
ENDCHAR

STARTCHAR s
ENCODING 115
SWIDTH 481 0
DWIDTH 8 0
BBX 8 8 0 0
BITMAP
3E
73
71
78
3C
9E
CE
7C
ENDCHAR

STARTCHAR t
ENCODING 116
SWIDTH 407 0
DWIDTH 7 0
BBX 6 12 1 0
BITMAP
10
30
30
70
FC
70
70
70
E0
E0
E8
70
ENDCHAR

STARTCHAR u
ENCODING 117
SWIDTH 685 0
DWIDTH 12 0
BBX 9 8 2 0
BITMAP
F380
7380
7380
7700
E700
E700
EF00
7780
ENDCHAR

STARTCHAR v
ENCODING 118
SWIDTH 556 0
DWIDTH 9 0
BBX 8 8 1 0
BITMAP
F2
73
71
E1
E2
E2
E4
78
ENDCHAR

STARTCHAR w
ENCODING 119
SWIDTH 833 0
DWIDTH 14 0
BBX 12 8 1 0
BITMAP
F320
7330
7310
E710
E720
EE20
F640
6380
ENDCHAR

STARTCHAR x
ENCODING 120
SWIDTH 574 0
DWIDTH 10 0
BBX 10 8 0 0
BITMAP
3980
5AC0
1CC0
1C00
0E00
CE00
D680
6700
ENDCHAR

STARTCHAR y
ENCODING 121
SWIDTH 519 0
DWIDTH 9 0
BBX 10 11 -1 -3
BITMAP
1880
3CC0
2C40
0E80
0E80
0700
0700
0600
C600
CC00
7000
ENDCHAR

STARTCHAR z
ENCODING 122
SWIDTH 519 0
DWIDTH 9 0
BBX 10 8 -1 0
BITMAP
0E40
1F80
2300
0600
1C00
3080
7F00
8E00
ENDCHAR

STARTCHAR braceleft
ENCODING 123
SWIDTH 407 0
DWIDTH 7 0
BBX 6 15 2 -3
BITMAP
0C
10
30
30
30
30
60
80
40
60
60
C0
C0
80
60
ENDCHAR

STARTCHAR bar
ENCODING 124
SWIDTH 606 0
DWIDTH 10 0
BBX 2 15 5 -3
BITMAP
C0
C0
C0
C0
C0
C0
C0
C0
C0
C0
C0
C0
C0
C0
C0
ENDCHAR

STARTCHAR braceright
ENCODING 125
SWIDTH 407 0
DWIDTH 7 0
BBX 6 15 -1 -3
BITMAP
18
04
0C
0C
18
18
08
04
18
30
30
30
30
20
C0
ENDCHAR

STARTCHAR asciitilde
ENCODING 126
SWIDTH 606 0
DWIDTH 10 0
BBX 10 3 1 4
BITMAP
7840
9E80
8700
ENDCHAR

STARTCHAR space
ENCODING 160
SWIDTH 287 0
DWIDTH 6 0
BBX 0 0 0 0
BITMAP
ENDCHAR

STARTCHAR exclamdown
ENCODING 161
SWIDTH 333 0
DWIDTH 6 0
BBX 5 12 0 -3
BITMAP
38
38
38
00
20
20
60
60
E0
E0
C0
C0
ENDCHAR

STARTCHAR cent
ENCODING 162
SWIDTH 574 0
DWIDTH 10 0
BBX 9 16 2 -4
BITMAP
0080
0100
0100
0200
1C00
7600
7600
EA00
E800
E800
F400
7800
2000
4000
4000
8000
ENDCHAR

STARTCHAR sterling
ENCODING 163
SWIDTH 574 0
DWIDTH 10 0
BBX 10 12 0 0
BITMAP
0780
0CC0
18C0
1880
1800
7F00
0C00
0C00
0C00
7800
9880
6F00
ENDCHAR

STARTCHAR currency
ENCODING 164
SWIDTH 574 0
DWIDTH 10 0
BBX 9 9 1 1
BITMAP
4100
FF80
6300
4100
4100
4100
6300
FF80
4100
ENDCHAR

STARTCHAR yen
ENCODING 165
SWIDTH 574 0
DWIDTH 10 0
BBX 11 12 0 0
BITMAP
7DE0
38C0
1C80
1D00
0D00
0E00
7FC0
0C00
FF80
1800
1800
3C00
ENDCHAR

STARTCHAR brokenbar
ENCODING 166
SWIDTH 606 0
DWIDTH 10 0
BBX 2 15 4 -3
BITMAP
C0
C0
C0
C0
C0
C0
C0
00
C0
C0
C0
C0
C0
C0
C0
ENDCHAR

STARTCHAR section
ENCODING 167
SWIDTH 500 0
DWIDTH 9 0
BBX 9 15 0 -3
BITMAP
0700
0980
1980
1800
3C00
6E00
6700
6300
7300
3B00
1E00
0C00
CC00
C800
7000
ENDCHAR

STARTCHAR dieresis
ENCODING 168
SWIDTH 333 0
DWIDTH 6 0
BBX 6 2 1 9
BITMAP
CC
CC
ENDCHAR

STARTCHAR copyright
ENCODING 169
SWIDTH 747 0
DWIDTH 13 0
BBX 12 12 1 0
BITMAP
0F00
30C0
4F20
58A0
B090
B010
B010
B010
58A0
4F20
30C0
0F00
ENDCHAR

STARTCHAR ordfeminine
ENCODING 170
SWIDTH 412 0
DWIDTH 7 0
BBX 6 5 2 7
BITMAP
3C
4C
C8
D8
74
ENDCHAR

STARTCHAR guillemotleft
ENCODING 171
SWIDTH 481 0
DWIDTH 8 0
BBX 9 7 0 1
BITMAP
0880
3300
6600
EE00
6600
2200
1100
ENDCHAR

STARTCHAR logicalnot
ENCODING 172
SWIDTH 606 0
DWIDTH 10 0
BBX 10 6 1 3
BITMAP
FFC0
FFC0
00C0
00C0
00C0
00C0
ENDCHAR

STARTCHAR hyphen
ENCODING 173
SWIDTH 333 0
DWIDTH 6 0
BBX 4 1 1 3
BITMAP
F0
ENDCHAR

STARTCHAR registered
ENCODING 174
SWIDTH 747 0
DWIDTH 13 0
BBX 12 12 1 0
BITMAP
0F00
30C0
5F20
59A0
9990
9F10
9B10
9990
59A0
4020
30C0
0F00
ENDCHAR

STARTCHAR macron
ENCODING 175
SWIDTH 333 0
DWIDTH 6 0
BBX 6 1 1 9
BITMAP
FC
ENDCHAR

STARTCHAR degree
ENCODING 176
SWIDTH 400 0
DWIDTH 7 0
BBX 5 5 1 7
BITMAP
70
D8
88
D8
70
ENDCHAR

STARTCHAR plusminus
ENCODING 177
SWIDTH 606 0
DWIDTH 10 0
BBX 10 13 1 -1
BITMAP
0C00
0C00
0C00
0C00
FFC0
FFC0
0C00
0C00
0C00
0C00
0000
FFC0
FFC0
ENDCHAR

STARTCHAR twosuperior
ENCODING 178
SWIDTH 344 0
DWIDTH 6 0
BBX 5 6 1 6
BITMAP
30
58
18
30
60
F8
ENDCHAR

STARTCHAR threesuperior
ENCODING 179
SWIDTH 344 0
DWIDTH 6 0
BBX 6 6 0 6
BITMAP
38
6C
1C
08
D8
70
ENDCHAR

STARTCHAR acute
ENCODING 180
SWIDTH 333 0
DWIDTH 6 0
BBX 3 2 2 9
BITMAP
60
C0
ENDCHAR

STARTCHAR mu
ENCODING 181
SWIDTH 685 0
DWIDTH 12 0
BBX 10 11 1 -3
BITMAP
1980
1980
1980
3300
3300
3300
7740
7D80
6000
C000
C000
ENDCHAR

STARTCHAR paragraph
ENCODING 182
SWIDTH 650 0
DWIDTH 11 0
BBX 9 15 2 -3
BITMAP
7F80
FA00
FA00
FA00
FA00
FA00
FA00
7A00
0A00
0A00
0A00
0A00
0A00
0A00
0A00
ENDCHAR

STARTCHAR periodcentered
ENCODING 183
SWIDTH 287 0
DWIDTH 5 0
BBX 3 3 1 5
BITMAP
40
E0
40
ENDCHAR

STARTCHAR cedilla
ENCODING 184
SWIDTH 333 0
DWIDTH 6 0
BBX 3 3 1 -3
BITMAP
40
20
C0
ENDCHAR

STARTCHAR onesuperior
ENCODING 185
SWIDTH 344 0
DWIDTH 6 0
BBX 4 6 1 6
BITMAP
30
70
30
60
60
F0
ENDCHAR

STARTCHAR ordmasculine
ENCODING 186
SWIDTH 356 0
DWIDTH 6 0
BBX 6 6 2 6
BITMAP
38
6C
CC
CC
D8
70
ENDCHAR

STARTCHAR guillemotright
ENCODING 187
SWIDTH 481 0
DWIDTH 8 0
BBX 9 7 0 1
BITMAP
4400
2200
3300
3B80
3300
6600
8800
ENDCHAR

STARTCHAR onequarter
ENCODING 188
SWIDTH 861 0
DWIDTH 15 0
BBX 11 12 2 0
BITMAP
3040
7080
3080
6100
6200
F200
0440
08C0
09C0
12C0
27E0
2180
ENDCHAR

STARTCHAR onehalf
ENCODING 189
SWIDTH 861 0
DWIDTH 15 0
BBX 10 12 3 0
BITMAP
3080
7100
3100
6200
6400
F400
0980
12C0
10C0
2180
4300
47C0
ENDCHAR

STARTCHAR threequarters
ENCODING 190
SWIDTH 861 0
DWIDTH 15 0
BBX 13 12 1 0
BITMAP
3810
6C20
1C20
0840
D880
7080
0110
0230
0270
04B0
09F8
0860
ENDCHAR

STARTCHAR questiondown
ENCODING 191
SWIDTH 481 0
DWIDTH 8 0
BBX 7 12 1 -3
BITMAP
0C
1E
0C
00
18
24
1C
3C
78
E4
E8
70
ENDCHAR

STARTCHAR Agrave
ENCODING 192
SWIDTH 741 0
DWIDTH 13 0
BBX 13 15 0 0
BITMAP
00C0
0060
0000
0060
00E0
01E0
02E0
02E0
0470
0870
1FF0
1070
2070
4070
E0F8
ENDCHAR

STARTCHAR Aacute
ENCODING 193
SWIDTH 741 0
DWIDTH 13 0
BBX 13 15 0 0
BITMAP
0030
0060
0000
0060
00E0
01E0
02E0
02E0
0470
0870
1FF0
1070
2070
4070
E0F8
ENDCHAR

STARTCHAR Acircumflex
ENCODING 194
SWIDTH 741 0
DWIDTH 13 0
BBX 13 16 0 0
BITMAP
0020
0070
0088
0000
0060
00E0
01E0
02E0
02E0
0470
0870
1FF0
1070
2070
4070
E0F8
ENDCHAR

STARTCHAR Atilde
ENCODING 195
SWIDTH 741 0
DWIDTH 13 0
BBX 13 15 0 0
BITMAP
0068
00B0
0000
0060
00E0
01E0
02E0
02E0
0470
0870
1FF0
1070
2070
4070
E0F8
ENDCHAR

STARTCHAR Adieresis
ENCODING 196
SWIDTH 741 0
DWIDTH 13 0
BBX 13 15 0 0
BITMAP
0198
0198
0000
0060
00E0
01E0
02E0
02E0
0470
0870
1FF0
1070
2070
4070
E0F8
ENDCHAR

STARTCHAR Aring
ENCODING 197
SWIDTH 741 0
DWIDTH 13 0
BBX 13 16 0 0
BITMAP
0060
0090
0060
0000
0060
00E0
01E0
02E0
02E0
0470
0870
1FF0
1070
2070
4070
E0F8
ENDCHAR

STARTCHAR AE
ENCODING 198
SWIDTH 889 0
DWIDTH 15 0
BBX 17 12 -1 0
BITMAP
07FF00
02E180
04E100
05C900
09C800
09F800
11D000
1F9200
238200
238600
438600
E7FC00
ENDCHAR

STARTCHAR Ccedilla
ENCODING 199
SWIDTH 759 0
DWIDTH 13 0
BBX 12 15 2 -3
BITMAP
0790
1C70
3820
7020
7020
E000
E000
E000
E000
E040
7080
1F00
0800
0400
1800
ENDCHAR

STARTCHAR Egrave
ENCODING 200
SWIDTH 741 0
DWIDTH 13 0
BBX 13 15 1 0
BITMAP
0600
0300
0000
3FF0
1C18
1C10
1C90
3880
3F80
3900
3920
7020
7060
7060
FFC0
ENDCHAR

STARTCHAR Eacute
ENCODING 201
SWIDTH 741 0
DWIDTH 13 0
BBX 13 15 1 0
BITMAP
0180
0300
0000
3FF0
1C18
1C10
1C90
3880
3F80
3900
3920
7020
7060
7060
FFC0
ENDCHAR

STARTCHAR Ecircumflex
ENCODING 202
SWIDTH 741 0
DWIDTH 13 0
BBX 13 16 1 0
BITMAP
0080
01C0
0220
0000
3FF0
1C18
1C10
1C90
3880
3F80
3900
3920
7020
7060
7060
FFC0
ENDCHAR

STARTCHAR Edieresis
ENCODING 203
SWIDTH 741 0
DWIDTH 13 0
BBX 13 15 1 0
BITMAP
0660
0660
0000
3FF0
1C18
1C10
1C90
3880
3F80
3900
3920
7020
7060
7060
FFC0
ENDCHAR

STARTCHAR Igrave
ENCODING 204
SWIDTH 444 0
DWIDTH 7 0
BBX 7 15 1 0
BITMAP
18
0C
00
3E
1C
1C
1C
38
38
38
38
70
70
70
F8
ENDCHAR

STARTCHAR Iacute
ENCODING 205
SWIDTH 444 0
DWIDTH 7 0
BBX 7 15 1 0
BITMAP
06
0C
00
3E
1C
1C
1C
38
38
38
38
70
70
70
F8
ENDCHAR

STARTCHAR Icircumflex
ENCODING 206
SWIDTH 444 0
DWIDTH 7 0
BBX 8 16 1 0
BITMAP
04
0E
11
00
3E
1C
1C
1C
38
38
38
38
70
70
70
F8
ENDCHAR

STARTCHAR Idieresis
ENCODING 207
SWIDTH 444 0
DWIDTH 7 0
BBX 8 15 1 0
BITMAP
33
33
00
3E
1C
1C
1C
38
38
38
38
70
70
70
F8
ENDCHAR

STARTCHAR Gbreve
ENCODING 208
SWIDTH 815 0
DWIDTH 14 0
BBX 13 16 2 0
BITMAP
0840
0780
0300
0000
0790
1C70
3820
7020
7020
E000
E1F8
E060
E0E0
E0E0
71C0
1E40
ENDCHAR

STARTCHAR Ntilde
ENCODING 209
SWIDTH 852 0
DWIDTH 14 0
BBX 14 15 1 0
BITMAP
01A0
02C0
0000
3C1C
1C08
1E08
1610
2710
2310
23A0
21A0
41E0
40E0
40C0
E040
ENDCHAR

STARTCHAR Ograve
ENCODING 210
SWIDTH 833 0
DWIDTH 14 0
BBX 12 15 2 0
BITMAP
0600
0300
0000
0780
1CE0
3870
7070
7070
E070
E070
E0E0
E0E0
E1C0
7380
1E00
ENDCHAR

STARTCHAR Oacute
ENCODING 211
SWIDTH 833 0
DWIDTH 14 0
BBX 12 15 2 0
BITMAP
0180
0300
0000
0780
1CE0
3870
7070
7070
E070
E070
E0E0
E0E0
E1C0
7380
1E00
ENDCHAR

STARTCHAR Ocircumflex
ENCODING 212
SWIDTH 833 0
DWIDTH 14 0
BBX 12 16 2 0
BITMAP
0100
0380
0440
0000
0780
1CE0
3870
7070
7070
E070
E070
E0E0
E0E0
E1C0
7380
1E00
ENDCHAR

STARTCHAR Otilde
ENCODING 213
SWIDTH 833 0
DWIDTH 14 0
BBX 12 15 2 0
BITMAP
0340
0580
0000
0780
1CE0
3870
7070
7070
E070
E070
E0E0
E0E0
E1C0
7380
1E00
ENDCHAR

STARTCHAR Odieresis
ENCODING 214
SWIDTH 833 0
DWIDTH 14 0
BBX 12 15 2 0
BITMAP
0660
0660
0000
0780
1CE0
3870
7070
7070
E070
E070
E0E0
E0E0
E1C0
7380
1E00
ENDCHAR

STARTCHAR multiply
ENCODING 215
SWIDTH 650 0
DWIDTH 11 0
BBX 9 8 1 2
BITMAP
E380
7700
3E00
1C00
1C00
3E00
7700
E380
ENDCHAR

STARTCHAR Oslash
ENCODING 216
SWIDTH 833 0
DWIDTH 14 0
BBX 12 12 2 0
BITMAP
0790
1CE0
38F0
7170
7270
E270
E470
E4E0
E8E0
F1C0
7380
9E00
ENDCHAR

STARTCHAR Ugrave
ENCODING 217
SWIDTH 833 0
DWIDTH 14 0
BBX 13 15 2 0
BITMAP
0600
0300
0000
7C38
3810
3810
3810
7020
7020
7020
E020
E040
E040
7080
3F00
ENDCHAR

STARTCHAR Uacute
ENCODING 218
SWIDTH 833 0
DWIDTH 14 0
BBX 13 15 2 0
BITMAP
0180
0300
0000
7C38
3810
3810
3810
7020
7020
7020
E020
E040
E040
7080
3F00
ENDCHAR

STARTCHAR Ucircumflex
ENCODING 219
SWIDTH 833 0
DWIDTH 14 0
BBX 13 16 2 0
BITMAP
0100
0380
0440
0000
7C38
3810
3810
3810
7020
7020
7020
E020
E040
E040
7080
3F00
ENDCHAR

STARTCHAR Udieresis
ENCODING 220
SWIDTH 833 0
DWIDTH 14 0
BBX 13 15 2 0
BITMAP
0660
0660
0000
7C38
3810
3810
3810
7020
7020
7020
E020
E040
E040
7080
3F00
ENDCHAR

STARTCHAR Idotaccent
ENCODING 221
SWIDTH 444 0
DWIDTH 7 0
BBX 7 15 1 0
BITMAP
0C
0C
00
3E
1C
1C
1C
38
38
38
38
70
70
70
F8
ENDCHAR

STARTCHAR Scedilla
ENCODING 222
SWIDTH 685 0
DWIDTH 12 0
BBX 11 15 1 -3
BITMAP
0F20
1CE0
3840
3840
3E00
1F80
0FC0
03C0
41C0
41C0
E380
9F00
0400
0200
0C00
ENDCHAR

STARTCHAR germandbls
ENCODING 223
SWIDTH 574 0
DWIDTH 10 0
BBX 12 15 -2 -3
BITMAP
01E0
0630
0630
0C60
0DC0
18C0
1860
1860
1860
30E0
30C0
3380
6000
6000
C000
ENDCHAR

STARTCHAR agrave
ENCODING 224
SWIDTH 667 0
DWIDTH 11 0
BBX 10 11 1 0
BITMAP
0C00
0600
0000
1D80
3380
7380
E380
E700
E700
EF40
7780
ENDCHAR

STARTCHAR aacute
ENCODING 225
SWIDTH 667 0
DWIDTH 11 0
BBX 10 11 1 0
BITMAP
0300
0600
0000
1D80
3380
7380
E380
E700
E700
EF40
7780
ENDCHAR

STARTCHAR acircumflex
ENCODING 226
SWIDTH 667 0
DWIDTH 11 0
BBX 10 12 1 0
BITMAP
0200
0700
0880
0000
1D80
3380
7380
E380
E700
E700
EF40
7780
ENDCHAR

STARTCHAR atilde
ENCODING 227
SWIDTH 667 0
DWIDTH 11 0
BBX 10 11 1 0
BITMAP
0680
0B00
0000
1D80
3380
7380
E380
E700
E700
EF40
7780
ENDCHAR

STARTCHAR adieresis
ENCODING 228
SWIDTH 667 0
DWIDTH 11 0
BBX 10 11 1 0
BITMAP
1980
1980
0000
1D80
3380
7380
E380
E700
E700
EF40
7780
ENDCHAR

STARTCHAR aring
ENCODING 229
SWIDTH 667 0
DWIDTH 11 0
BBX 10 12 1 0
BITMAP
0600
0900
0600
0000
1D80
3380
7380
E380
E700
E700
EF40
7780
ENDCHAR

STARTCHAR ae
ENCODING 230
SWIDTH 815 0
DWIDTH 14 0
BBX 12 8 1 0
BITMAP
1DE0
3370
7330
E760
E7C0
EE00
EE20
77C0
ENDCHAR

STARTCHAR ccedilla
ENCODING 231
SWIDTH 537 0
DWIDTH 9 0
BBX 8 11 1 -3
BITMAP
1E
7B
73
E0
E0
E0
E4
78
20
10
60
ENDCHAR

STARTCHAR egrave
ENCODING 232
SWIDTH 519 0
DWIDTH 9 0
BBX 8 11 1 0
BITMAP
18
0C
00
1E
77
67
EE
FC
E0
E2
7C
ENDCHAR

STARTCHAR eacute
ENCODING 233
SWIDTH 519 0
DWIDTH 9 0
BBX 8 11 1 0
BITMAP
0C
18
00
1E
77
67
EE
FC
E0
E2
7C
ENDCHAR

STARTCHAR ecircumflex
ENCODING 234
SWIDTH 519 0
DWIDTH 9 0
BBX 8 12 1 0
BITMAP
04
0E
11
00
1E
77
67
EE
FC
E0
E2
7C
ENDCHAR

STARTCHAR edieresis
ENCODING 235
SWIDTH 519 0
DWIDTH 9 0
BBX 8 11 1 0
BITMAP
33
33
00
1E
77
67
EE
FC
E0
E2
7C
ENDCHAR

STARTCHAR igrave
ENCODING 236
SWIDTH 389 0
DWIDTH 7 0
BBX 5 11 1 0
BITMAP
C0
60
00
F0
70
70
70
E0
E0
E8
70
ENDCHAR

STARTCHAR iacute
ENCODING 237
SWIDTH 389 0
DWIDTH 7 0
BBX 5 11 1 0
BITMAP
30
60
00
F0
70
70
70
E0
E0
E8
70
ENDCHAR

STARTCHAR icircumflex
ENCODING 238
SWIDTH 389 0
DWIDTH 7 0
BBX 6 12 1 0
BITMAP
10
38
44
00
F0
70
70
70
E0
E0
E8
70
ENDCHAR

STARTCHAR idieresis
ENCODING 239
SWIDTH 389 0
DWIDTH 7 0
BBX 6 11 1 0
BITMAP
CC
CC
00
F0
70
70
70
E0
E0
E8
70
ENDCHAR

STARTCHAR gbreve
ENCODING 240
SWIDTH 611 0
DWIDTH 10 0
BBX 11 15 0 -3
BITMAP
1080
0F00
0600
0060
1FA0
39C0
39C0
1980
3F00
4000
7E00
7F00
C380
C700
7E00
ENDCHAR

STARTCHAR ntilde
ENCODING 241
SWIDTH 685 0
DWIDTH 12 0
BBX 10 11 1 0
BITMAP
0D00
1600
0000
F700
7B80
7380
7380
7700
E700
E740
E380
ENDCHAR

STARTCHAR ograve
ENCODING 242
SWIDTH 574 0
DWIDTH 10 0
BBX 8 11 1 0
BITMAP
18
0C
00
1E
37
67
E7
E7
E6
EC
78
ENDCHAR

STARTCHAR oacute
ENCODING 243
SWIDTH 574 0
DWIDTH 10 0
BBX 8 11 1 0
BITMAP
06
0C
00
1E
37
67
E7
E7
E6
EC
78
ENDCHAR

STARTCHAR ocircumflex
ENCODING 244
SWIDTH 574 0
DWIDTH 10 0
BBX 8 12 1 0
BITMAP
04
0E
11
00
1E
37
67
E7
E7
E6
EC
78
ENDCHAR

STARTCHAR otilde
ENCODING 245
SWIDTH 574 0
DWIDTH 10 0
BBX 8 11 1 0
BITMAP
0D
16
00
1E
37
67
E7
E7
E6
EC
78
ENDCHAR

STARTCHAR odieresis
ENCODING 246
SWIDTH 574 0
DWIDTH 10 0
BBX 8 11 1 0
BITMAP
33
33
00
1E
37
67
E7
E7
E6
EC
78
ENDCHAR

STARTCHAR divide
ENCODING 247
SWIDTH 650 0
DWIDTH 11 0
BBX 10 10 1 1
BITMAP
0C00
0C00
0000
0000
FFC0
FFC0
0000
0000
0C00
0C00
ENDCHAR

STARTCHAR oslash
ENCODING 248
SWIDTH 574 0
DWIDTH 10 0
BBX 8 8 1 0
BITMAP
1D
37
67
EF
F7
E6
EC
B8
ENDCHAR

STARTCHAR ugrave
ENCODING 249
SWIDTH 685 0
DWIDTH 12 0
BBX 9 11 2 0
BITMAP
1800
0C00
0000
F380
7380
7380
7700
E700
E700
EF00
7780
ENDCHAR

STARTCHAR uacute
ENCODING 250
SWIDTH 685 0
DWIDTH 12 0
BBX 9 11 2 0
BITMAP
0600
0C00
0000
F380
7380
7380
7700
E700
E700
EF00
7780
ENDCHAR

STARTCHAR ucircumflex
ENCODING 251
SWIDTH 685 0
DWIDTH 12 0
BBX 9 12 2 0
BITMAP
0400
0E00
1100
0000
F380
7380
7380
7700
E700
E700
EF00
7780
ENDCHAR

STARTCHAR udieresis
ENCODING 252
SWIDTH 685 0
DWIDTH 12 0
BBX 9 11 2 0
BITMAP
3300
3300
0000
F380
7380
7380
7700
E700
E700
EF00
7780
ENDCHAR

STARTCHAR dotlessi
ENCODING 253
SWIDTH 389 0
DWIDTH 7 0
BBX 5 8 1 0
BITMAP
F0
70
70
70
E0
E0
E8
70
ENDCHAR

STARTCHAR scedilla
ENCODING 254
SWIDTH 481 0
DWIDTH 8 0
BBX 8 11 0 -3
BITMAP
3E
73
71
78
3C
9E
CE
7C
10
08
30
ENDCHAR

STARTCHAR ydieresis
ENCODING 255
SWIDTH 519 0
DWIDTH 9 0
BBX 10 14 -1 -3
BITMAP
0CC0
0CC0
0000
1880
3CC0
2C40
0E80
0E80
0700
0700
0600
C600
CC00
7000
ENDCHAR
ENDFONT
